<?xml version="1.0" encoding="UTF-8"?>
<svg version="1.1" xmlns="http://www.w3.org/2000/svg" width="3931" height="2160">
<path d="M0 0 C99 0 198 0 300 0 C300 24.75 300 49.5 300 75 C324.30848269 74.96038526 324.30848269 74.96038526 348.61694336 74.90991211 C353.30969238 74.90539551 353.30969238 74.90539551 355.50392151 74.90455627 C357.04221383 74.90301687 358.58050492 74.89949201 360.11878967 74.89442444 C362.44371652 74.88714582 364.76856939 74.88609262 367.09350586 74.88647461 C369.06207802 74.88314369 369.06207802 74.88314369 371.07041931 74.87974548 C374 75 374 75 375 76 C375.09793005 77.5889481 375.12555534 79.18226793 375.12584114 80.77423096 C375.12975276 82.3333703 375.12975276 82.3333703 375.13374341 83.92400742 C375.13039732 85.65786886 375.13039732 85.65786886 375.12698364 87.42675781 C375.12854363 88.64380527 375.13010362 89.86085274 375.13171089 91.11478043 C375.13502426 94.50827882 375.13381164 97.90172238 375.13072467 101.29521751 C375.12847249 104.94897023 375.13194927 108.60271798 375.13470459 112.25646973 C375.13916324 119.4202323 375.1381854 126.58398443 375.13529195 133.74774742 C375.13303829 139.56722474 375.13272523 145.38669913 375.13381577 151.20617676 C375.133969 152.03281019 375.13412223 152.85944363 375.13428011 153.71112657 C375.13459982 155.3901453 375.13492403 157.06916404 375.1352527 158.74818277 C375.13810777 174.5114411 375.13482005 190.27469362 375.12945233 206.03795099 C375.12498427 219.57868899 375.12576019 233.11941841 375.13037109 246.66015625 C375.13571638 262.365026 375.13783308 278.06989066 375.13475883 293.7747612 C375.13444026 295.44778188 375.13412589 297.12080256 375.13381577 298.79382324 C375.13366149 299.6170924 375.13350721 300.44036156 375.13334826 301.28857827 C375.13248297 307.10453682 375.13394625 312.92049215 375.13629532 318.7364502 C375.13909301 325.81917412 375.13835571 332.90188696 375.13301457 339.9846096 C375.13037714 343.60187262 375.1293732 347.21911711 375.13266373 350.83638 C375.13616895 354.74867799 375.13199836 358.6609453 375.12698364 362.57324219 C375.12921436 363.72914982 375.13144509 364.88505745 375.13374341 366.07599258 C375.13113566 367.11541882 375.12852791 368.15484505 375.12584114 369.22576904 C375.12567879 370.13010052 375.12551644 371.03443199 375.12534916 371.96616745 C375 374 375 374 374 375 C371.69946165 375.09443335 369.39597827 375.11742128 367.09350586 375.11352539 C366.37159561 375.11367142 365.64968536 375.11381744 364.90589905 375.1139679 C362.50885053 375.11326869 360.11187877 375.10547595 357.71484375 375.09765625 C356.05717511 375.0957921 354.39950593 375.09436818 352.74183655 375.09336853 C348.37045786 375.08954312 343.99911219 375.07971265 339.62774658 375.06866455 C335.17045539 375.05845092 330.71315889 375.05387101 326.25585938 375.04882812 C317.50389107 375.0380904 308.75194964 375.02101371 300 375 C300.00222061 375.92485703 300.00444122 376.84971405 300.00672913 377.80259705 C300.02672913 386.49952587 300.04197264 395.19644702 300.05181217 403.89339352 C300.05704074 408.36505549 300.06413789 412.83669853 300.07543945 417.30834961 C300.08626929 421.62011973 300.09227704 425.93187159 300.09487724 430.24365425 C300.09673132 431.89236298 300.1003516 433.54107066 300.10573006 435.18977165 C300.11294178 437.49103872 300.11399089 439.7922294 300.11352539 442.09350586 C300.115746 443.4058873 300.11796661 444.71826874 300.12025452 446.07041931 C300 449 300 449 299 450 C297.4048758 450.09704736 295.80543188 450.1237162 294.20735836 450.12304783 C293.16383203 450.12503888 292.12030571 450.12702993 291.04515737 450.12908131 C289.30443632 450.12471205 289.30443632 450.12471205 287.52854919 450.12025452 C286.30671261 450.12110894 285.08487603 450.12196337 283.8260141 450.12284368 C280.41918169 450.12421192 277.01240603 450.12106427 273.60558045 450.11606562 C269.93753375 450.11176457 266.26948894 450.1132073 262.60144043 450.1139679 C256.24118569 450.11449335 249.88094118 450.11134431 243.52068901 450.10573006 C234.32472655 450.09761796 225.12876905 450.09500014 215.9328034 450.09374207 C201.01452563 450.09155109 186.09625332 450.08488976 171.17797852 450.07543945 C156.68253609 450.06626652 142.18709514 450.05918511 127.69165039 450.05493164 C126.35237696 450.05453756 126.35237696 450.05453756 124.9860475 450.05413551 C120.50708084 450.05283051 116.02811417 450.05156679 111.54914749 450.05032361 C74.36609348 450.03994957 37.18304956 450.0215105 0 450 C0 425.25 0 400.5 0 375 C-24.75 375 -49.5 375 -75 375 C-75 276 -75 177 -75 75 C-50.25 75 -25.5 75 0 75 C0 50.25 0 25.5 0 0 Z M0 76 C0 174.34 0 272.68 0 374 C98.67 374 197.34 374 299 374 C299 275.66 299 177.32 299 76 C200.33 76 101.66 76 0 76 Z " fill="#B00000" transform="translate(675,919)"/>
<path d="M0 0 C99 0 198 0 300 0 C300 24.75 300 49.5 300 75 C324.75 75 349.5 75 375 75 C375.02202581 113.07381164 375.0404975 151.1476173 375.05106533 189.22143349 C375.05231611 193.7115058 375.05361042 198.2015781 375.05493164 202.69165039 C375.05532511 204.03254765 375.05532511 204.03254765 375.05572652 205.40053374 C375.06008352 219.89457932 375.06797122 234.38862096 375.0771528 248.8826642 C375.08648852 263.74346185 375.09205544 278.60425744 375.09408849 293.46505791 C375.09546389 302.64258359 375.09981538 311.82009811 375.10791647 320.99762035 C375.11318292 327.28217022 375.11480453 333.56671428 375.11350138 339.8512662 C375.11285784 343.48270058 375.11387728 347.1141154 375.11920547 350.74554634 C375.12492659 354.67322135 375.12300112 358.60087045 375.12025452 362.52854919 C375.12462378 364.26927024 375.12462378 364.26927024 375.12908131 366.04515737 C375.12709026 367.0886837 375.12509921 368.13221002 375.12304783 369.20735836 C375.12342755 370.11526967 375.12380727 371.02318098 375.1241985 371.95860475 C375 374 375 374 374 375 C371.69946165 375.09443335 369.39597827 375.11742128 367.09350586 375.11352539 C366.35988358 375.11364593 365.62626131 375.11376646 364.87040806 375.11389065 C362.48518958 375.11314161 360.10004833 375.10551382 357.71484375 375.09765625 C356.24646034 375.0961868 354.77807642 375.09516611 353.30969238 375.09460449 C347.85228696 375.08935194 342.39489273 375.07539085 336.9375 375.0625 C324.748125 375.041875 312.55875 375.02125 300 375 C300 399.75 300 424.5 300 450 C201 450 102 450 0 450 C0 301.5 0 153 0 0 Z M75 76 C75 174.34 75 272.68 75 374 C148.92 374 222.84 374 299 374 C299 275.66 299 177.32 299 76 C225.08 76 151.16 76 75 76 Z " fill="#B00000" transform="translate(1528,919)"/>
<path d="M0 0 C99 0 198 0 300 0 C300 24.75 300 49.5 300 75 C324.75 75 349.5 75 375 75 C375.02202581 113.07381164 375.0404975 151.1476173 375.05106533 189.22143349 C375.05231611 193.7115058 375.05361042 198.2015781 375.05493164 202.69165039 C375.05532511 204.03254765 375.05532511 204.03254765 375.05572652 205.40053374 C375.06008352 219.89457932 375.06797122 234.38862096 375.0771528 248.8826642 C375.08648852 263.74346185 375.09205544 278.60425744 375.09408849 293.46505791 C375.09546389 302.64258359 375.09981538 311.82009811 375.10791647 320.99762035 C375.11318292 327.28217022 375.11480453 333.56671428 375.11350138 339.8512662 C375.11285784 343.48270058 375.11387728 347.1141154 375.11920547 350.74554634 C375.12492659 354.67322135 375.12300112 358.60087045 375.12025452 362.52854919 C375.12462378 364.26927024 375.12462378 364.26927024 375.12908131 366.04515737 C375.12709026 367.0886837 375.12509921 368.13221002 375.12304783 369.20735836 C375.12342755 370.11526967 375.12380727 371.02318098 375.1241985 371.95860475 C375 374 375 374 374 375 C371.69946165 375.09443335 369.39597827 375.11742128 367.09350586 375.11352539 C366.35988358 375.11364593 365.62626131 375.11376646 364.87040806 375.11389065 C362.48518958 375.11314161 360.10004833 375.10551382 357.71484375 375.09765625 C356.24646034 375.0961868 354.77807642 375.09516611 353.30969238 375.09460449 C347.85228696 375.08935194 342.39489273 375.07539085 336.9375 375.0625 C324.748125 375.041875 312.55875 375.02125 300 375 C300 399.75 300 424.5 300 450 C201 450 102 450 0 450 C0 301.5 0 153 0 0 Z M75 76 C75 174.34 75 272.68 75 374 C148.92 374 222.84 374 299 374 C299 275.66 299 177.32 299 76 C225.08 76 151.16 76 75 76 Z " fill="#B00000" transform="translate(1101,919)"/>
<path d="M0 0 C24.75 0 49.5 0 75 0 C75 12.21 75 24.42 75 37 C82.99541016 36.98259766 82.99541016 36.98259766 91.15234375 36.96484375 C94.5201835 36.95973692 97.88801851 36.95492314 101.25585938 36.95117188 C106.60669948 36.94518371 111.95752255 36.93808412 117.30834961 36.92456055 C121.62011973 36.91373071 125.93187159 36.90772296 130.24365425 36.90512276 C131.89236298 36.90326868 133.54107066 36.8996484 135.18977165 36.89426994 C137.49103872 36.88705822 139.7922294 36.88600911 142.09350586 36.88647461 C144.06207802 36.88314369 144.06207802 36.88314369 146.07041931 36.87974548 C149 37 149 37 150 38 C150.09443335 40.30053835 150.11742128 42.60402173 150.11352539 44.90649414 C150.11367142 45.62840439 150.11381744 46.35031464 150.1139679 47.09410095 C150.11326869 49.49114947 150.10547595 51.88812123 150.09765625 54.28515625 C150.0957921 55.94282489 150.09436818 57.60049407 150.09336853 59.25816345 C150.08954312 63.62954214 150.07971265 68.00088781 150.06866455 72.37225342 C150.05845092 76.82954461 150.05387101 81.28684111 150.04882812 85.74414062 C150.0380904 94.49610893 150.02101371 103.24805036 150 112 C150.92485703 111.99777939 151.84971405 111.99555878 152.80259705 111.99327087 C161.49952587 111.97327087 170.19644702 111.95802736 178.89339352 111.94818783 C183.36505549 111.94295926 187.83669853 111.93586211 192.30834961 111.92456055 C196.62011973 111.91373071 200.93187159 111.90772296 205.24365425 111.90512276 C206.89236298 111.90326868 208.54107066 111.8996484 210.18977165 111.89426994 C212.49103872 111.88705822 214.7922294 111.88600911 217.09350586 111.88647461 C219.06207802 111.88314369 219.06207802 111.88314369 221.07041931 111.87974548 C224 112 224 112 225 113 C225.09443335 115.30053835 225.11742128 117.60402173 225.11352539 119.90649414 C225.11364593 120.64011642 225.11376646 121.37373869 225.11389065 122.12959194 C225.11314161 124.51481042 225.10551382 126.89995167 225.09765625 129.28515625 C225.0961868 130.75353966 225.09516611 132.22192358 225.09460449 133.69030762 C225.08935194 139.14771304 225.07539085 144.60510727 225.0625 150.0625 C225.041875 162.251875 225.02125 174.44125 225 187 C249.42 187 273.84 187 299 187 C299 125.29 299 63.58 299 0 C324.08 0 349.16 0 375 0 C375.0225829 57.18292384 375.04049893 114.36584662 375.05106533 171.54877403 C375.05231272 178.29203751 375.05360927 185.03530099 375.05493164 191.77856445 C375.0550624 192.44961806 375.05519316 193.12067167 375.05532788 193.81206024 C375.05959302 215.58238428 375.06710716 237.35270574 375.07629722 259.12302821 C375.08598698 282.11872334 375.09199361 305.11441739 375.09408849 328.11011463 C375.09546405 341.89405849 375.09981641 355.67799491 375.10791647 369.46193648 C375.11318197 378.90020345 375.11480474 388.33846655 375.11350138 397.77673488 C375.11285769 403.23090654 375.11387896 408.68506517 375.11920547 414.13923454 C375.12403805 419.1237163 375.12433959 424.10817616 375.12089889 429.09265888 C375.12047306 430.90423984 375.12176998 432.7158221 375.12488318 434.52740043 C375.12884486 436.97321204 375.12676485 439.41894264 375.12304783 441.86475277 C375.12567484 442.58247686 375.12830186 443.30020095 375.13100848 444.03967425 C375.1141458 448.8858542 375.1141458 448.8858542 374 450 C371.70488504 450.09971155 369.40665451 450.12799866 367.109375 450.12939453 C366.38907104 450.13114685 365.66876709 450.13289917 364.92663574 450.13470459 C362.53439966 450.13912288 360.1422369 450.13618521 357.75 450.1328125 C356.09472642 450.13348555 354.43945293 450.13445558 352.78417969 450.13571167 C349.31053733 450.13718861 345.83692063 450.13503421 342.36328125 450.13037109 C337.90067502 450.1246738 333.43812892 450.12795283 328.9755249 450.13394356 C325.5561477 450.13754927 322.13678485 450.13641054 318.71740723 450.13381577 C317.07149244 450.13314652 315.42557637 450.13397482 313.77966309 450.13629532 C311.48328169 450.13882202 309.18699901 450.13498103 306.890625 450.12939453 C304.92657715 450.12820114 304.92657715 450.12820114 302.92285156 450.12698364 C300 450 300 450 299 449 C298.90233458 446.59671471 298.87003172 444.22220648 298.87974548 441.81846619 C298.87846385 440.67787344 298.87846385 440.67787344 298.87715632 439.51423842 C298.87549922 436.9468875 298.88102661 434.37960083 298.88647461 431.81225586 C298.88675646 429.97961936 298.88659879 428.14698275 298.8860321 426.31434631 C298.88574404 421.32281938 298.89164223 416.33131625 298.89860606 411.33979487 C298.90483809 406.12940894 298.90544328 400.91902251 298.90663147 395.70863342 C298.90974523 385.83468975 298.91795922 375.96075709 298.92798096 366.08681828 C298.93914071 354.84879999 298.9446522 343.61078119 298.94967639 332.37275875 C298.9601418 309.24849971 298.97774211 286.12425047 299 263 C298.07514297 263.00222061 297.15028595 263.00444122 296.19740295 263.00672913 C287.50047413 263.02672913 278.80355298 263.04197264 270.10660648 263.05181217 C265.63494451 263.05704074 261.16330147 263.06413789 256.69165039 263.07543945 C252.37988027 263.08626929 248.06812841 263.09227704 243.75634575 263.09487724 C242.10763702 263.09673132 240.45892934 263.1003516 238.81022835 263.10573006 C236.50896128 263.11294178 234.2077706 263.11399089 231.90649414 263.11352539 C230.5941127 263.115746 229.28173126 263.11796661 227.92958069 263.12025452 C225 263 225 263 224 262 C223.90556665 259.69946165 223.88257872 257.39597827 223.88647461 255.09350586 C223.88635407 254.35988358 223.88623354 253.62626131 223.88610935 252.87040806 C223.88685839 250.48518958 223.89448618 248.10004833 223.90234375 245.71484375 C223.9038132 244.24646034 223.90483389 242.77807642 223.90539551 241.30969238 C223.91064806 235.85228696 223.92460915 230.39489273 223.9375 224.9375 C223.958125 212.748125 223.97875 200.55875 224 188 C199.58 188 175.16 188 150 188 C150 163.25 150 138.5 150 113 C125.25 113 100.5 113 75 113 C75 224.21 75 335.42 75 450 C50.25 450 25.5 450 0 450 C0 301.5 0 153 0 0 Z " fill="#AF0000" transform="translate(2771,919)"/>
<path d="M0 0 C61.71 0 123.42 0 187 0 C187 24.75 187 49.5 187 75 C211.75 75 236.5 75 262 75 C262 198.75 262 322.5 262 450 C237.25 450 212.5 450 187 450 C187 375.75 187 301.5 187 225 C125.29 225 63.58 225 0 225 C0 299.25 0 373.5 0 450 C-24.75 450 -49.5 450 -75 450 C-75 326.25 -75 202.5 -75 75 C-50.25 75 -25.5 75 0 75 C0 50.25 0 25.5 0 0 Z M0 76 C0 100.42 0 124.84 0 150 C61.71 150 123.42 150 187 150 C187 125.58 187 101.16 187 76 C125.29 76 63.58 76 0 76 Z " fill="#B00000" transform="translate(2457,919)"/>
<path d="M0 0 C25.08 0 50.16 0 76 0 C76.0225829 57.18292384 76.04049893 114.36584662 76.05106533 171.54877403 C76.05231272 178.29203751 76.05360927 185.03530099 76.05493164 191.77856445 C76.0550624 192.44961806 76.05519316 193.12067167 76.05532788 193.81206024 C76.05959302 215.58238428 76.06710716 237.35270574 76.07629722 259.12302821 C76.08598698 282.11872334 76.09199361 305.11441739 76.09408849 328.11011463 C76.09546405 341.89405849 76.09981641 355.67799491 76.10791647 369.46193648 C76.11318197 378.90020345 76.11480474 388.33846655 76.11350138 397.77673488 C76.11285769 403.23090654 76.11387896 408.68506517 76.11920547 414.13923454 C76.12403805 419.1237163 76.12433959 424.10817616 76.12089889 429.09265888 C76.12047306 430.90423984 76.12176998 432.7158221 76.12488318 434.52740043 C76.12884486 436.97321204 76.12676485 439.41894264 76.12304783 441.86475277 C76.12698835 442.9413389 76.12698835 442.9413389 76.13100848 444.03967425 C76.1141458 448.8858542 76.1141458 448.8858542 75 450 C72.70488504 450.09971155 70.40665451 450.12799866 68.109375 450.12939453 C67.38907104 450.13114685 66.66876709 450.13289917 65.92663574 450.13470459 C63.53439966 450.13912288 61.1422369 450.13618521 58.75 450.1328125 C57.09472642 450.13348555 55.43945293 450.13445558 53.78417969 450.13571167 C50.31053733 450.13718861 46.83692063 450.13503421 43.36328125 450.13037109 C38.90067502 450.1246738 34.43812892 450.12795283 29.9755249 450.13394356 C26.5561477 450.13754927 23.13678485 450.13641054 19.71740723 450.13381577 C18.07149244 450.13314652 16.42557637 450.13397482 14.77966309 450.13629532 C12.48328169 450.13882202 10.18699901 450.13498103 7.890625 450.12939453 C6.58125977 450.12859894 5.27189453 450.12780334 3.92285156 450.12698364 C1 450 1 450 0 449 C-0.09704736 447.4048758 -0.1237162 445.80543188 -0.12304783 444.20735836 C-0.12503888 443.16383203 -0.12702993 442.12030571 -0.12908131 441.04515737 C-0.12616847 439.88467667 -0.12325563 438.72419598 -0.12025452 437.52854919 C-0.12153615 435.69579432 -0.12153615 435.69579432 -0.12284368 433.8260141 C-0.12421192 430.41918169 -0.12106427 427.01240603 -0.11606562 423.60558045 C-0.11176457 419.93753375 -0.1132073 416.26948894 -0.1139679 412.60144043 C-0.11449335 406.24118569 -0.11134431 399.88094118 -0.10573006 393.52068901 C-0.09761796 384.32472655 -0.09500014 375.12876905 -0.09374207 365.9328034 C-0.09155109 351.01452563 -0.08488976 336.09625332 -0.07543945 321.17797852 C-0.06626652 306.68253609 -0.05918511 292.18709514 -0.05493164 277.69165039 C-0.05466892 276.79880144 -0.05440619 275.90595248 -0.05413551 274.9860475 C-0.05283051 270.50708084 -0.05156679 266.02811417 -0.05032361 261.54914749 C-0.03994957 224.36609348 -0.0215105 187.18304956 0 150 C-24.42 150 -48.84 150 -74 150 C-74 174.75 -74 199.5 -74 225 C-98.75 225 -123.5 225 -149 225 C-149 200.25 -149 175.5 -149 150 C-124.58 150 -100.16 150 -75 150 C-75 125.25 -75 100.5 -75 75 C-50.25 75 -25.5 75 0 75 C0 50.25 0 25.5 0 0 Z " fill="#AE0000" transform="translate(2254,919)"/>
<path d="M0 0 C24.75 0 49.5 0 75 0 C75 24.75 75 49.5 75 75 C99.75 75 124.5 75 150 75 C150 99.75 150 124.5 150 150 C125.25 150 100.5 150 75 150 C75 249 75 348 75 450 C50.25 450 25.5 450 0 450 C0 301.5 0 153 0 0 Z " fill="#B00000" transform="translate(1955,919)"/>
<path d="M0 0 C99 0 198 0 300 0 C300 123.42 300 246.84 300 374 C324.42 374 348.84 374 374 374 C374 374.33 374 374.66 374 375 C349.58 375 325.16 375 300 375 C300 399.42 300 423.84 300 449 C299.67 449 299.34 449 299 449 C299 424.58 299 400.16 299 375 C200.33 375 101.66 375 0 375 C0 374.67 0 374.34 0 374 C98.67 374 197.34 374 299 374 C299 275.66 299 177.32 299 76 C200.33 76 101.66 76 0 76 C0 75.67 0 75.34 0 75 C98.67 75 197.34 75 299 75 C299 50.58 299 26.16 299 1 C200.33 1 101.66 1 0 1 C0 0.67 0 0.34 0 0 Z " fill="#570000" transform="translate(675,919)"/>
<path d="M0 0 C0.33 0 0.66 0 1 0 C1 123.42 1 246.84 1 374 C25.42 374 49.84 374 75 374 C75 374.33 75 374.66 75 375 C50.58 375 26.16 375 1 375 C1 399.75 1 424.5 1 450 C-98 450 -197 450 -299 450 C-299 449.67 -299 449.34 -299 449 C-200.33 449 -101.66 449 0 449 C0 424.58 0 400.16 0 375 C-73.92 375 -147.84 375 -224 375 C-224 374.67 -224 374.34 -224 374 C-150.08 374 -76.16 374 0 374 C0 275.66 0 177.32 0 76 C-73.92 76 -147.84 76 -224 76 C-224 75.67 -224 75.34 -224 75 C-150.08 75 -76.16 75 0 75 C0 50.25 0 25.5 0 0 Z " fill="#510000" transform="translate(1827,919)"/>
<path d="M0 0 C0.33 0 0.66 0 1 0 C1 123.42 1 246.84 1 374 C25.42 374 49.84 374 75 374 C75 374.33 75 374.66 75 375 C50.58 375 26.16 375 1 375 C1 399.75 1 424.5 1 450 C-98 450 -197 450 -299 450 C-299 449.67 -299 449.34 -299 449 C-200.33 449 -101.66 449 0 449 C0 424.58 0 400.16 0 375 C-73.92 375 -147.84 375 -224 375 C-224 374.67 -224 374.34 -224 374 C-150.08 374 -76.16 374 0 374 C0 275.66 0 177.32 0 76 C-73.92 76 -147.84 76 -224 76 C-224 75.67 -224 75.34 -224 75 C-150.08 75 -76.16 75 0 75 C0 50.25 0 25.5 0 0 Z " fill="#510000" transform="translate(1400,919)"/>
<path d="M0 0 C0.33 0 0.66 0 1 0 C1 24.42 1 48.84 1 74 C25.42 74 49.84 74 75 74 C75 74.33 75 74.66 75 75 C50.58 75 26.16 75 1 75 C1 99.42 1 123.84 1 149 C0.67 149 0.34 149 0 149 C0 124.58 0 100.16 0 75 C-24.42 75 -48.84 75 -74 75 C-74 74.67 -74 74.34 -74 74 C-49.58 74 -25.16 74 0 74 C0 49.58 0 25.16 0 0 Z " fill="#5E0000" transform="translate(2995,1032)"/>
</svg>
